M48
; DRILL file KiCad 10.0.3 date 2026-05-30T14:31:21
; FORMAT={-:-/ absolute / metric / decimal}
; #@! TF.CreationDate,2026-05-30T14:31:21-07:00
; #@! TF.GenerationSoftware,Kicad,Pcbnew,10.0.3
; #@! TF.FileFunction,MixedPlating,1,2
FMAT,2
METRIC
; #@! TA.AperFunction,Plated,PTH,ComponentDrill
T1C0.800
; #@! TA.AperFunction,Plated,PTH,ComponentDrill
T2C1.000
; #@! TA.AperFunction,Plated,PTH,ComponentDrill
T3C1.500
; #@! TA.AperFunction,NonPlated,NPTH,ComponentDrill
T4C1.700
; #@! TA.AperFunction,NonPlated,NPTH,ComponentDrill
T5C3.200
; #@! TA.AperFunction,NonPlated,NPTH,ComponentDrill
T6C4.000
%
G90
G05
T1
X65.71Y-86.12
X65.71Y-89.67
X65.71Y-93.22
X65.71Y-96.77
X65.71Y-100.32
X65.71Y-103.87
X65.71Y-107.42
X65.71Y-110.97
X65.71Y-114.52
X73.33Y-86.12
X73.33Y-89.67
X73.33Y-93.22
X73.33Y-96.77
X73.33Y-100.32
X73.33Y-103.87
X73.33Y-107.42
X73.33Y-110.97
X73.33Y-114.52
T2
X56.571Y-64.035
X56.571Y-66.575
X56.571Y-69.115
X56.571Y-71.655
X56.571Y-74.195
X56.571Y-76.735
X56.571Y-79.275
X71.821Y-64.035
X71.821Y-66.575
X71.821Y-69.115
X71.821Y-71.655
X71.821Y-74.195
X71.821Y-76.735
X71.821Y-79.275
T3
X82.036Y-72.02
X82.036Y-91.02
X82.036Y-110.02
X88.386Y-69.48
X88.386Y-88.48
X88.386Y-107.48
X101.036Y-72.02
X101.036Y-91.02
X101.036Y-110.02
X107.386Y-69.48
X107.386Y-88.48
X107.386Y-107.48
X120.036Y-72.02
X120.036Y-91.02
X120.036Y-110.02
X126.386Y-69.48
X126.386Y-88.48
X126.386Y-107.48
T4
X80.766Y-74.56
X80.766Y-93.56
X80.766Y-112.56
X90.926Y-74.56
X90.926Y-93.56
X90.926Y-112.56
X99.766Y-74.56
X99.766Y-93.56
X99.766Y-112.56
X109.926Y-74.56
X109.926Y-93.56
X109.926Y-112.56
X118.766Y-74.56
X118.766Y-93.56
X118.766Y-112.56
X128.926Y-74.56
X128.926Y-93.56
X128.926Y-112.56
T5
X51.02Y-65.02
X51.02Y-122.02
X135.52Y-65.02
X135.52Y-122.02
T6
X85.846Y-74.56
X85.846Y-93.56
X85.846Y-112.56
X104.846Y-74.56
X104.846Y-93.56
X104.846Y-112.56
X123.846Y-74.56
X123.846Y-93.56
X123.846Y-112.56
M30
